<svg xmlns="http://www.w3.org/2000/svg" xmlns:xlink="http://www.w3.org/1999/xlink" width="1295" height="2421" viewBox="0 0 1295 2421">
  <defs>
    <clipPath id="clip-path">
      <rect id="Rectangle_10" data-name="Rectangle 10" width="1295" height="2421"/>
    </clipPath>
  </defs>
  <g id="roadmap_architect" clip-path="url(#clip-path)">
    <rect width="1295" height="2421" fill="#fff"/>
    <g id="roadmap_architect-2" data-name="roadmap_architect" clip-path="url(#clip-path)">
      <rect id="Rectangle_9" data-name="Rectangle 9" width="1295" height="2421" fill="#fff"/>
      <g id="Groupe_37" data-name="Groupe 37" transform="translate(-45.44 -15.545)">
        <g id="Composant_2_54" data-name="Composant 2 – 54" transform="translate(530.5 219.23)">
          <rect id="Rectangle_1" data-name="Rectangle 1" width="276.624" height="77.279" rx="38.639" fill="#dd0330"/>
          <g id="Groupe_39" data-name="Groupe 39">
            <text id="Notions_générales_" data-name="Notions générales " transform="translate(25.666 31)" fill="#fff" font-size="26" font-family="HelveticaNeue-Bold, Helvetica Neue" font-weight="700"><tspan x="0" y="0">Notions générales </tspan></text>
            <text id="d_architecture" data-name="d’architecture" transform="translate(51.874 63)" fill="#fff" font-size="26" font-family="HelveticaNeue-Bold, Helvetica Neue" font-weight="700"><tspan x="0" y="0">d’architecture</tspan></text>
          </g>
        </g>
        <g id="Composant_3_221" data-name="Composant 3 – 221" transform="translate(235.34 436.485)">
          <path id="Tracé_109" data-name="Tracé 109" d="M0,0H120.4V48.473H0Z" fill="#4077d0"/>
          <g id="Groupe_40" data-name="Groupe 40" transform="translate(40.348 0)">
            <text id="Pattern_" data-name="Pattern " transform="translate(-11.971 19.737)" fill="#fff" font-size="18" font-family="HelveticaNeue-Bold, Helvetica Neue" font-weight="700"><tspan x="0" y="0">Pattern </tspan></text>
            <text id="Observer" transform="translate(-19.648 42.737)" fill="#fff" font-size="18" font-family="HelveticaNeue-Bold, Helvetica Neue" font-weight="700"><tspan x="0" y="0">Observer</tspan></text>
          </g>
        </g>
        <path id="Tracé_66" data-name="Tracé 66" d="M929.221,648.973s31.079,61.479,0,128.005" transform="translate(-202.806 -414.287) rotate(5)" fill="none" stroke="#c30e2e" stroke-linecap="round" stroke-width="12"/>
        <g id="Composant_3_222" data-name="Composant 3 – 222" transform="translate(235.34 494.202)">
          <path id="Tracé_109-2" data-name="Tracé 109" d="M0,0H120.4V44.954H0Z" transform="translate(0 0.046)" fill="#4077d0"/>
          <g id="Groupe_41" data-name="Groupe 41" transform="translate(55.801 0.046)">
            <text id="Composition_" data-name="Composition " transform="translate(-53.101 18)" fill="#fff" font-size="18" font-family="HelveticaNeue-Bold, Helvetica Neue" font-weight="700"><tspan x="0" y="0">Composition </tspan></text>
            <text id="des_flux" data-name="des flux" transform="translate(-31.969 41)" fill="#fff" font-size="18" font-family="HelveticaNeue-Bold, Helvetica Neue" font-weight="700"><tspan x="0" y="0">des flux</tspan></text>
          </g>
        </g>
        <g id="pointiller" transform="translate(375.709 482.556)">
          <ellipse id="Ellipse_1" data-name="Ellipse 1" cx="3.5" cy="3.524" rx="3.5" ry="3.524" transform="translate(0 0)" fill="#dd0330"/>
          <ellipse id="Ellipse_2" data-name="Ellipse 2" cx="3.5" cy="3.524" rx="3.5" ry="3.524" transform="translate(23.166 0)" fill="#dd0330"/>
          <ellipse id="Ellipse_3" data-name="Ellipse 3" cx="3.5" cy="3.524" rx="3.5" ry="3.524" transform="translate(47.34 0)" fill="#dd0330"/>
          <ellipse id="Ellipse_4" data-name="Ellipse 4" cx="3.5" cy="3.524" rx="3.5" ry="3.524" transform="translate(70.506 0)" fill="#dd0330"/>
          <ellipse id="Ellipse_5" data-name="Ellipse 5" cx="3.5" cy="3.524" rx="3.5" ry="3.524" transform="translate(94.679 0)" fill="#dd0330"/>
          <ellipse id="Ellipse_6" data-name="Ellipse 6" cx="3.5" cy="3.524" rx="3.5" ry="3.524" transform="translate(117.845 0)" fill="#dd0330"/>
        </g>
        <g id="pointiller-2" data-name="pointiller" transform="translate(831.5 257.869)">
          <ellipse id="Ellipse_1-2" data-name="Ellipse 1" cx="3.5" cy="3.524" rx="3.5" ry="3.524" transform="translate(0 0)" fill="#dd0330"/>
          <ellipse id="Ellipse_2-2" data-name="Ellipse 2" cx="3.5" cy="3.524" rx="3.5" ry="3.524" transform="translate(23.166 0)" fill="#dd0330"/>
          <ellipse id="Ellipse_3-2" data-name="Ellipse 3" cx="3.5" cy="3.524" rx="3.5" ry="3.524" transform="translate(47.34 0)" fill="#dd0330"/>
          <ellipse id="Ellipse_4-2" data-name="Ellipse 4" cx="3.5" cy="3.524" rx="3.5" ry="3.524" transform="translate(70.506 0)" fill="#dd0330"/>
          <ellipse id="Ellipse_5-2" data-name="Ellipse 5" cx="3.5" cy="3.524" rx="3.5" ry="3.524" transform="translate(94.679 0)" fill="#dd0330"/>
          <ellipse id="Ellipse_6-2" data-name="Ellipse 6" cx="3.5" cy="3.524" rx="3.5" ry="3.524" transform="translate(117.845 0)" fill="#dd0330"/>
        </g>
        <g id="Composant_2_55" data-name="Composant 2 – 55" transform="translate(530.5 458.9)">
          <rect id="Rectangle_1-2" data-name="Rectangle 1" width="276.624" height="77.279" rx="38.639" fill="#dd0330"/>
          <g id="Groupe_42" data-name="Groupe 42">
            <text id="Programmation_" data-name="Programmation " transform="translate(41.813 30.66)" fill="#fff" font-size="26" font-family="HelveticaNeue-Bold, Helvetica Neue" font-weight="700"><tspan x="0" y="0">Programmation </tspan></text>
            <text id="fonctionnelle" transform="translate(57.946 62.66)" fill="#fff" font-size="26" font-family="HelveticaNeue-Bold, Helvetica Neue" font-weight="700"><tspan x="0" y="0">fonctionnelle</tspan></text>
          </g>
        </g>
        <g id="Composant_2_56" data-name="Composant 2 – 56" transform="translate(530.5 678.512)">
          <rect id="Rectangle_1-3" data-name="Rectangle 1" width="276.624" height="77.279" rx="38.639" fill="#dd0330"/>
          <g id="Groupe_43" data-name="Groupe 43">
            <text id="Smart_Vs_Dumb_" data-name="Smart Vs Dumb " transform="translate(41.54 30.66)" fill="#fff" font-size="26" font-family="HelveticaNeue-Bold, Helvetica Neue" font-weight="700"><tspan x="0" y="0">Smart Vs Dumb </tspan></text>
            <text id="component" transform="translate(67.787 62.66)" fill="#fff" font-size="26" font-family="HelveticaNeue-Bold, Helvetica Neue" font-weight="700"><tspan x="0" y="0">component</tspan></text>
          </g>
        </g>
        <g id="Composant_2_57" data-name="Composant 2 – 57" transform="translate(530.5 876.236)">
          <rect id="Rectangle_1-4" data-name="Rectangle 1" width="276.624" height="77.279" rx="38.639" fill="#dd0330"/>
          <g id="Groupe_44" data-name="Groupe 44">
            <text id="Gestion_des_" data-name="Gestion des " transform="translate(64.42 31.82)" fill="#fff" font-size="26" font-family="HelveticaNeue-Bold, Helvetica Neue" font-weight="700"><tspan x="0" y="0">Gestion des </tspan></text>
            <text id="modules" transform="translate(85.142 63.82)" fill="#fff" font-size="26" font-family="HelveticaNeue-Bold, Helvetica Neue" font-weight="700"><tspan x="0" y="0">modules</tspan></text>
          </g>
        </g>
        <g id="Composant_2_58" data-name="Composant 2 – 58" transform="translate(530.5 1038.168)">
          <rect id="Rectangle_1-5" data-name="Rectangle 1" width="276.624" height="77.279" rx="38.639" fill="#dd0330"/>
          <g id="Groupe_45" data-name="Groupe 45">
            <text id="Découpage_en_" data-name="Découpage en " transform="translate(48.508 28.82)" fill="#fff" font-size="26" font-family="HelveticaNeue-Bold, Helvetica Neue" font-weight="700"><tspan x="0" y="0">Découpage en </tspan></text>
            <text id="features" transform="translate(87.508 60.82)" fill="#fff" font-size="26" font-family="HelveticaNeue-Bold, Helvetica Neue" font-weight="700"><tspan x="0" y="0">features</tspan></text>
          </g>
        </g>
        <g id="Composant_2_59" data-name="Composant 2 – 59" transform="translate(530.5 1268.401)">
          <rect id="Rectangle_1-6" data-name="Rectangle 1" width="276.624" height="77.279" rx="38.639" fill="#dd0330"/>
          <text id="Routing_shell" data-name="Routing shell" transform="translate(57.218 49.98)" fill="#fff" font-size="26" font-family="HelveticaNeue-Bold, Helvetica Neue" font-weight="700"><tspan x="0" y="0">Routing shell</tspan></text>
        </g>
        <g id="Composant_2_60" data-name="Composant 2 – 60" transform="translate(529.581 1512.184)">
          <rect id="Rectangle_1-7" data-name="Rectangle 1" width="276.624" height="77.279" rx="38.639" fill="#dd0330"/>
          <g id="Groupe_46" data-name="Groupe 46">
            <text id="Responsabilité_" data-name="Responsabilité " transform="translate(46.402 28.99)" fill="#fff" font-size="26" font-family="HelveticaNeue-Bold, Helvetica Neue" font-weight="700"><tspan x="0" y="0">Responsabilité </tspan></text>
            <text id="Service_Composant" data-name="Service/Composant" transform="translate(15.527 60.99)" fill="#fff" font-size="26" font-family="HelveticaNeue-Bold, Helvetica Neue" font-weight="700"><tspan x="0" y="0">Service/Composant</tspan></text>
          </g>
        </g>
        <g id="Composant_2_61" data-name="Composant 2 – 61" transform="translate(529.581 1723.27)">
          <rect id="Rectangle_1-8" data-name="Rectangle 1" width="276.624" height="77.279" rx="38.639" fill="#dd0330"/>
          <g id="Groupe_47" data-name="Groupe 47">
            <text id="Les_3_couches_" data-name="Les 3 couches " transform="translate(48.976 31.245)" fill="#fff" font-size="26" font-family="HelveticaNeue-Bold, Helvetica Neue" font-weight="700"><tspan x="0" y="0">Les 3 couches </tspan></text>
            <text id="de_données" data-name="de données" transform="translate(66.084 63.245)" fill="#fff" font-size="26" font-family="HelveticaNeue-Bold, Helvetica Neue" font-weight="700"><tspan x="0" y="0">de données</tspan></text>
          </g>
        </g>
        <g id="Composant_2_62" data-name="Composant 2 – 62" transform="translate(529.581 1958.524)">
          <rect id="Rectangle_1-9" data-name="Rectangle 1" width="276.624" height="77.279" rx="38.639" fill="#dd0330"/>
          <g id="Groupe_48" data-name="Groupe 48">
            <text id="Notions_" data-name="Notions " transform="translate(90.173 30.98)" fill="#fff" font-size="26" font-family="HelveticaNeue-Bold, Helvetica Neue" font-weight="700"><tspan x="0" y="0">Notions </tspan></text>
            <text id="avancées" transform="translate(79.552 62.98)" fill="#fff" font-size="26" font-family="HelveticaNeue-Bold, Helvetica Neue" font-weight="700"><tspan x="0" y="0">avancées</tspan></text>
          </g>
        </g>
        <g id="Composant_3_223" data-name="Composant 3 – 223" transform="translate(974.34 187.007)">
          <path id="Tracé_109-3" data-name="Tracé 109" d="M0,0H129.583V48.382H0Z" fill="#4077d0"/>
          <g id="Groupe_49" data-name="Groupe 49" transform="translate(44.998)">
            <text id="Fonctions_" data-name="Fonctions " transform="translate(-25.206 19.691)" fill="#fff" font-size="18" font-family="HelveticaNeue-Bold, Helvetica Neue" font-weight="700"><tspan x="0" y="0">Fonctions </tspan></text>
            <text id="pures" transform="translate(-6.882 42.691)" fill="#fff" font-size="18" font-family="HelveticaNeue-Bold, Helvetica Neue" font-weight="700"><tspan x="0" y="0">pures</tspan></text>
          </g>
        </g>
        <g id="Composant_3_224" data-name="Composant 3 – 224" transform="translate(974.34 240.68)">
          <path id="Tracé_109-4" data-name="Tracé 109" d="M0,0H119.4V44.473H0Z" fill="#4077d0"/>
          <text id="Immuabilité" transform="translate(9.2 29.236)" fill="#fff" font-size="18" font-family="HelveticaNeue-Bold, Helvetica Neue" font-weight="700"><tspan x="0" y="0">Immuabilité</tspan></text>
        </g>
        <g id="Composant_3_225" data-name="Composant 3 – 225" transform="translate(974.34 294.444)">
          <path id="Tracé_109-5" data-name="Tracé 109" d="M0,0H129.583V54.98H0Z" fill="#4077d0"/>
          <g id="Groupe_50" data-name="Groupe 50" transform="translate(57.175 0)">
            <text id="Dependency_" data-name="Dependency " transform="translate(-48.384 22.99)" fill="#fff" font-size="18" font-family="HelveticaNeue-Bold, Helvetica Neue" font-weight="700"><tspan x="0" y="0">Dependency </tspan></text>
            <text id="injection" transform="translate(-31.527 45.99)" fill="#fff" font-size="18" font-family="HelveticaNeue-Bold, Helvetica Neue" font-weight="700"><tspan x="0" y="0">injection</tspan></text>
          </g>
        </g>
        <path id="Tracé_110" data-name="Tracé 110" d="M943.115,648.973s-31.261,51.934,0,108.131" transform="translate(-270.386 -172.26) rotate(5)" fill="none" stroke="#c30e2e" stroke-linecap="round" stroke-width="12"/>
        <path id="Tracé_111" data-name="Tracé 111" d="M929.221,648.973s24.539,42.82,0,89.154" transform="translate(-224.827 45.275) rotate(5)" fill="none" stroke="#c30e2e" stroke-linecap="round" stroke-width="12"/>
        <path id="Tracé_112" data-name="Tracé 112" d="M935.1,648.973s-13.238,27.729,0,57.734" transform="translate(-310.545 271.152) rotate(3)" fill="none" stroke="#c30e2e" stroke-linecap="round" stroke-width="12"/>
        <path id="Tracé_113" data-name="Tracé 113" d="M929.221,648.973s20.258,57.089,0,118.865" transform="translate(-295.88 467.331) rotate(1)" fill="none" stroke="#c30e2e" stroke-linecap="round" stroke-width="12"/>
        <path id="Tracé_114" data-name="Tracé 114" d="M943.689,648.973s-32.552,61.077,0,127.167" transform="translate(-387.364 776.454) rotate(-4)" fill="none" stroke="#c30e2e" stroke-linecap="round" stroke-width="12"/>
        <path id="Tracé_115" data-name="Tracé 115" d="M929.221,648.973s39.536,47.621,0,99.15" transform="translate(-256.861 940.352) rotate(1)" fill="none" stroke="#c30e2e" stroke-linecap="round" stroke-width="12"/>
        <path id="Tracé_116" data-name="Tracé 116" d="M952.226,648.973s-51.76,59.353,0,123.578" transform="translate(-366.439 1199.555) rotate(-2)" fill="none" stroke="#c30e2e" stroke-linecap="round" stroke-width="12"/>
        <g id="pointiller-3" data-name="pointiller" transform="translate(828.148 1754.862)">
          <ellipse id="Ellipse_1-3" data-name="Ellipse 1" cx="3.5" cy="3.524" rx="3.5" ry="3.524" transform="translate(0 0)" fill="#dd0330"/>
          <ellipse id="Ellipse_2-3" data-name="Ellipse 2" cx="3.5" cy="3.524" rx="3.5" ry="3.524" transform="translate(23.166 0)" fill="#dd0330"/>
          <ellipse id="Ellipse_3-3" data-name="Ellipse 3" cx="3.5" cy="3.524" rx="3.5" ry="3.524" transform="translate(47.34 0)" fill="#dd0330"/>
          <ellipse id="Ellipse_4-3" data-name="Ellipse 4" cx="3.5" cy="3.524" rx="3.5" ry="3.524" transform="translate(70.506 0)" fill="#dd0330"/>
          <ellipse id="Ellipse_5-3" data-name="Ellipse 5" cx="3.5" cy="3.524" rx="3.5" ry="3.524" transform="translate(94.679 0)" fill="#dd0330"/>
          <ellipse id="Ellipse_6-3" data-name="Ellipse 6" cx="3.5" cy="3.524" rx="3.5" ry="3.524" transform="translate(117.845 0)" fill="#dd0330"/>
        </g>
        <g id="Composant_3_226" data-name="Composant 3 – 226" transform="translate(973.42 1685.793)">
          <path id="Tracé_109-6" data-name="Tracé 109" d="M0,0H124.782V46.589H0Z" fill="#4077d0"/>
          <g id="Groupe_51" data-name="Groupe 51" transform="translate(36.674 0)">
            <text id="Couche_" data-name="Couche " transform="translate(-9.783 18.795)" fill="#fff" font-size="18" font-family="HelveticaNeue-Bold, Helvetica Neue" font-weight="700"><tspan x="0" y="0">Couche </tspan></text>
            <text id="state" transform="translate(1.89 41.795)" fill="#fff" font-size="18" font-family="HelveticaNeue-Bold, Helvetica Neue" font-weight="700"><tspan x="0" y="0">state</tspan></text>
          </g>
        </g>
        <g id="Composant_3_227" data-name="Composant 3 – 227" transform="translate(973.42 1741.673)">
          <path id="Tracé_109-7" data-name="Tracé 109" d="M0,0H124.782V46.589H0Z" fill="#4077d0"/>
          <g id="Groupe_52" data-name="Groupe 52" transform="translate(44.66 0)">
            <text id="Couche_2" data-name="Couche " transform="translate(-15.283 18.795)" fill="#fff" font-size="18" font-family="HelveticaNeue-Bold, Helvetica Neue" font-weight="700"><tspan x="0" y="0">Couche </tspan></text>
            <text id="business" transform="translate(-20.269 41.795)" fill="#fff" font-size="18" font-family="HelveticaNeue-Bold, Helvetica Neue" font-weight="700"><tspan x="0" y="0">business</tspan></text>
          </g>
        </g>
        <g id="pointiller-4" data-name="pointiller" transform="translate(655.639 2176.629) rotate(-90)">
          <ellipse id="Ellipse_1-4" data-name="Ellipse 1" cx="3.5" cy="3.524" rx="3.5" ry="3.524" transform="translate(0 0)" fill="#dd0330"/>
          <ellipse id="Ellipse_2-4" data-name="Ellipse 2" cx="3.5" cy="3.524" rx="3.5" ry="3.524" transform="translate(23.166 0)" fill="#dd0330"/>
          <ellipse id="Ellipse_3-4" data-name="Ellipse 3" cx="3.5" cy="3.524" rx="3.5" ry="3.524" transform="translate(47.34 0)" fill="#dd0330"/>
          <ellipse id="Ellipse_4-4" data-name="Ellipse 4" cx="3.5" cy="3.524" rx="3.5" ry="3.524" transform="translate(70.506 0)" fill="#dd0330"/>
          <ellipse id="Ellipse_5-4" data-name="Ellipse 5" cx="3.5" cy="3.524" rx="3.5" ry="3.524" transform="translate(94.679 0)" fill="#dd0330"/>
          <ellipse id="Ellipse_6-4" data-name="Ellipse 6" cx="3.5" cy="3.524" rx="3.5" ry="3.524" transform="translate(117.845 0)" fill="#dd0330"/>
        </g>
        <g id="pointiller-5" data-name="pointiller" transform="translate(831.5 914.307)">
          <ellipse id="Ellipse_1-5" data-name="Ellipse 1" cx="3.5" cy="3.524" rx="3.5" ry="3.524" transform="translate(0 0)" fill="#dd0330"/>
          <ellipse id="Ellipse_2-5" data-name="Ellipse 2" cx="3.5" cy="3.524" rx="3.5" ry="3.524" transform="translate(23.166 0)" fill="#dd0330"/>
          <ellipse id="Ellipse_3-5" data-name="Ellipse 3" cx="3.5" cy="3.524" rx="3.5" ry="3.524" transform="translate(47.34 0)" fill="#dd0330"/>
          <ellipse id="Ellipse_4-5" data-name="Ellipse 4" cx="3.5" cy="3.524" rx="3.5" ry="3.524" transform="translate(70.506 0)" fill="#dd0330"/>
          <ellipse id="Ellipse_5-5" data-name="Ellipse 5" cx="3.5" cy="3.524" rx="3.5" ry="3.524" transform="translate(94.679 0)" fill="#dd0330"/>
          <ellipse id="Ellipse_6-5" data-name="Ellipse 6" cx="3.5" cy="3.524" rx="3.5" ry="3.524" transform="translate(117.845 0)" fill="#dd0330"/>
        </g>
        <g id="Composant_3_228" data-name="Composant 3 – 228" transform="translate(971.54 843.355)">
          <path id="Tracé_109-8" data-name="Tracé 109" d="M0,0H173.4V48.473H0Z" transform="translate(2.8)" fill="#4077d0"/>
          <g id="Groupe_53" data-name="Groupe 53" transform="translate(86.902 0)">
            <text id="Feature_Modules_" data-name="Feature Modules + " transform="translate(-79.902 19.737)" fill="#fff" font-size="18" font-family="HelveticaNeue-Bold, Helvetica Neue" font-weight="700"><tspan x="0" y="0">Feature Modules + </tspan></text>
            <text id="SharedModule" transform="translate(-62.334 42.737)" fill="#fff" font-size="18" font-family="HelveticaNeue-Bold, Helvetica Neue" font-weight="700"><tspan x="0" y="0">SharedModule</tspan></text>
          </g>
        </g>
        <g id="Composant_3_229" data-name="Composant 3 – 229" transform="translate(974.34 901.118)">
          <path id="Tracé_109-9" data-name="Tracé 109" d="M0,0H173.4V52.4H0Z" fill="#4077d0"/>
          <g id="Groupe_54" data-name="Groupe 54" transform="translate(78.317 0.001)">
            <text id="Single_Component_" data-name="Single Component " transform="translate(-73.617 21.699)" fill="#fff" font-size="18" font-family="HelveticaNeue-Bold, Helvetica Neue" font-weight="700"><tspan x="0" y="0">Single Component </tspan></text>
            <text id="Angular_Module" data-name="Angular Module" transform="translate(-62.115 44.699)" fill="#fff" font-size="18" font-family="HelveticaNeue-Bold, Helvetica Neue" font-weight="700"><tspan x="0" y="0">Angular Module</tspan></text>
          </g>
        </g>
        <g id="Composant_3_230" data-name="Composant 3 – 230" transform="translate(974.34 962.806)">
          <path id="Tracé_109-10" data-name="Tracé 109" d="M0,0H173.4V54.658H0Z" fill="#4077d0"/>
          <g id="Groupe_55" data-name="Groupe 55" transform="translate(78.663)">
            <text id="Standalone_" data-name="Standalone " transform="translate(-42.801 22.829)" fill="#fff" font-size="18" font-family="HelveticaNeue-Bold, Helvetica Neue" font-weight="700"><tspan x="0" y="0">Standalone </tspan></text>
            <text id="component-2" data-name="component" transform="translate(-43.125 45.829)" fill="#fff" font-size="18" font-family="HelveticaNeue-Bold, Helvetica Neue" font-weight="700"><tspan x="0" y="0">component</tspan></text>
          </g>
        </g>
        <g id="Composant_3_231" data-name="Composant 3 – 231" transform="translate(973.42 1797.552)">
          <path id="Tracé_109-11" data-name="Tracé 109" d="M0,0H124.782V51.692H0Z" fill="#4077d0"/>
          <g id="Groupe_56" data-name="Groupe 56" transform="translate(51.145 0)">
            <text id="Couche_3" data-name="Couche " transform="translate(-21.783 21.346)" fill="#fff" font-size="18" font-family="HelveticaNeue-Bold, Helvetica Neue" font-weight="700"><tspan x="0" y="0">Couche </tspan></text>
            <text id="view_Model" data-name="view Model" transform="translate(-37.254 44.346)" fill="#fff" font-size="18" font-family="HelveticaNeue-Bold, Helvetica Neue" font-weight="700"><tspan x="0" y="0">view Model</tspan></text>
          </g>
        </g>
        <g id="Composant_3_232" data-name="Composant 3 – 232" transform="translate(255.261 2169.61)">
          <path id="Tracé_109-12" data-name="Tracé 109" d="M0,0H169.4V56.473H0Z" fill="#4077d0"/>
          <g id="Groupe_57" data-name="Groupe 57" transform="translate(76.645 0)">
            <text id="Migration_par_" data-name="Migration par " transform="translate(-51.945 23.737)" fill="#fff" font-size="18" font-family="HelveticaNeue-Bold, Helvetica Neue" font-weight="700"><tspan x="0" y="0">Migration par </tspan></text>
            <text id="itération" transform="translate(-29.949 46.737)" fill="#fff" font-size="18" font-family="HelveticaNeue-Bold, Helvetica Neue" font-weight="700"><tspan x="0" y="0">itération</tspan></text>
          </g>
        </g>
        <g id="Composant_3_233" data-name="Composant 3 – 233" transform="translate(449.425 2169.61)">
          <path id="Tracé_109-13" data-name="Tracé 109" d="M0,0H181.451V70.987H0Z" fill="#4077d0"/>
          <g id="Groupe_58" data-name="Groupe 58" transform="translate(-2.328 1.493)">
            <text id="Router_state_et_" data-name="Router state et " transform="translate(26.718 18)" fill="#fff" font-size="18" font-family="HelveticaNeue-Bold, Helvetica Neue" font-weight="700"><tspan x="0" y="0">Router state et </tspan></text>
            <text id="Formstate_avec_" data-name="Formstate avec " transform="translate(24.054 41)" fill="#fff" font-size="18" font-family="HelveticaNeue-Bold, Helvetica Neue" font-weight="700"><tspan x="0" y="0">Formstate avec </tspan></text>
            <text id="Ngxs" transform="translate(68.892 64)" fill="#fff" font-size="18" font-family="HelveticaNeue-Bold, Helvetica Neue" font-weight="700"><tspan x="0" y="0">Ngxs</tspan></text>
          </g>
        </g>
        <g id="Composant_3_234" data-name="Composant 3 – 234" transform="translate(687.45 2169.61)">
          <path id="Tracé_109-14" data-name="Tracé 109" d="M0,0H179.4V95.473H0Z" fill="#4077d0"/>
          <g id="Groupe_59" data-name="Groupe 59" transform="translate(81.494 0)">
            <text id="Programmation_2" data-name="Programmation " transform="translate(-61.107 31.737)" fill="#fff" font-size="18" font-family="HelveticaNeue-Bold, Helvetica Neue" font-weight="700"><tspan x="0" y="0">Programmation </tspan></text>
            <text id="réactive_:_Réifiée_et_" data-name="réactive : Réifiée et " transform="translate(-76.794 54.737)" fill="#fff" font-size="18" font-family="HelveticaNeue-Bold, Helvetica Neue" font-weight="700"><tspan x="0" y="0">réactive : Réifiée et </tspan></text>
            <text id="transparente" transform="translate(-49.146 77.737)" fill="#fff" font-size="18" font-family="HelveticaNeue-Bold, Helvetica Neue" font-weight="700"><tspan x="0" y="0">transparente</tspan></text>
          </g>
        </g>
        <g id="Composant_3_235" data-name="Composant 3 – 235" transform="translate(891.613 2169.61)">
          <path id="Tracé_109-15" data-name="Tracé 109" d="M0,0H151.4V49.473H0Z" fill="#4077d0"/>
          <g id="Groupe_60" data-name="Groupe 60" transform="translate(67.329 0)">
            <text id="Comparer_Ngxs_" data-name="Comparer Ngxs " transform="translate(-61.629 20.237)" fill="#fff" font-size="18" font-family="HelveticaNeue-Bold, Helvetica Neue" font-weight="700"><tspan x="0" y="0">Comparer Ngxs </tspan></text>
            <text id="et_Ngrx" data-name="et Ngrx" transform="translate(-25.638 43.237)" fill="#fff" font-size="18" font-family="HelveticaNeue-Bold, Helvetica Neue" font-weight="700"><tspan x="0" y="0">et Ngrx</tspan></text>
          </g>
        </g>
      </g>
    </g>
  </g>
</svg>
